<?xml version="1.0" encoding="UTF-8"?>
<svg version="1.1" xmlns="http://www.w3.org/2000/svg" width="512" height="512">
<path d="M0 0 C4.12971942 3.77871561 8.13168405 7.66589475 12.07983398 11.63305664 C12.82104492 12.35106445 13.56225586 13.06907227 14.32592773 13.80883789 C19.08385193 18.44802601 23.28669789 23.17391568 27.07983398 28.63305664 C32.10717833 26.39813732 35.52059599 22.63790675 39.39233398 18.82055664 C40.14579102 18.10834961 40.89924805 17.39614258 41.67553711 16.66235352 C42.38258789 15.96561523 43.08963867 15.26887695 43.81811523 14.55102539 C44.46820557 13.91962646 45.1182959 13.28822754 45.78808594 12.63769531 C47.34393756 10.67513808 47.34393756 10.67513808 46.85009766 8.11865234 C46.59591064 7.29840576 46.34172363 6.47815918 46.07983398 5.63305664 C43.18654485 -4.40835861 43.16441649 -13.52668657 47.07983398 -23.36694336 C51.69956261 -31.57019979 59.20893342 -38.51644192 68.10327148 -41.71069336 C76.72654371 -43.61188724 87.2575961 -43.8830502 95.07983398 -39.36694336 C95.82620117 -38.9531543 96.57256836 -38.53936523 97.34155273 -38.11303711 C104.83189208 -33.5693106 109.6951315 -27.45262152 113.07983398 -19.36694336 C113.07983398 -18.37694336 113.07983398 -17.38694336 113.07983398 -16.36694336 C130.56983398 -16.36694336 148.05983398 -16.36694336 166.07983398 -16.36694336 C166.07983398 -10.42694336 166.07983398 -4.48694336 166.07983398 1.63305664 C148.58983398 1.63305664 131.09983398 1.63305664 113.07983398 1.63305664 C111.59483398 6.08805664 111.59483398 6.08805664 110.07983398 10.63305664 C104.40167162 19.20412163 96.31753184 24.46174728 86.57983398 27.38305664 C78.64265428 28.17677461 71.31564239 27.47417152 63.76367188 24.81860352 C60.92952357 24.3339287 60.92952357 24.3339287 58.58447266 26.44726562 C57.73087158 27.3322876 56.87727051 28.21730957 55.99780273 29.12915039 C55.53876053 29.59668228 55.07971832 30.06421417 54.60676575 30.5459137 C53.14560284 32.04063146 51.706674 33.55484251 50.26733398 35.07055664 C49.27979801 36.08818957 48.29088029 37.10448356 47.30053711 38.11938477 C44.87741773 40.60861255 42.47381491 43.11575613 40.07983398 45.63305664 C43.57261142 52.63576685 43.57261142 52.63576685 47.10717773 59.61743164 C57.74953555 80.53356895 65.2750221 101.43321619 69.07983398 124.63305664 C69.25772461 125.70378418 69.25772461 125.70378418 69.43920898 126.79614258 C77.62475329 178.66228495 64.05518288 232.32716643 35.07983398 275.63305664 C40.23956027 281.89151126 45.9069883 287.5614995 51.67163086 293.2590332 C52.73691608 294.31583664 53.80193669 295.37290687 54.86671448 296.43022156 C57.14896501 298.69583438 59.43259277 300.9600466 61.71717834 303.22330475 C65.33635615 306.80967797 68.94942255 310.40216567 72.56115723 313.99603271 C73.17272627 314.6045153 73.78429532 315.21299788 74.41439676 315.83991933 C75.6643534 317.08356882 76.91430136 318.32722703 78.16424084 319.57089376 C86.56401508 327.92778328 94.96823792 336.28011855 103.38696289 344.61791992 C109.07893995 350.25527836 114.76185952 355.90159943 120.43473291 361.55818343 C123.4306779 364.54479411 126.43097388 367.52671115 129.44248962 370.49762726 C132.27696756 373.29399673 135.0993187 376.10206996 137.91319084 378.91916847 C138.94153933 379.94457019 139.97411811 380.96575175 141.01143074 381.98208427 C149.35981059 390.16918052 157.16717661 399.49665538 158.07983398 411.63305664 C158.1912894 424.25936295 154.95534637 434.47689564 146.07983398 443.63305664 C137.54220484 450.90114985 128.31905518 453.24367696 117.24389648 452.90649414 C101.9852403 451.58784484 91.9320699 440.9398595 81.64160156 430.53540039 C80.54704246 429.43999278 79.45181781 428.34524986 78.35598755 427.25111389 C75.41403042 424.31000941 72.48134643 421.3598193 69.55037141 418.40777588 C66.4742141 415.31272863 63.3894276 412.2263052 60.30558777 409.13891602 C54.48105772 403.30510141 48.66421047 397.46368948 42.85015649 391.61943626 C36.22481699 384.96044034 29.59084799 378.31006961 22.95617831 371.66037178 C9.32117807 357.99410394 -4.30307138 344.31716459 -17.92016602 330.63305664 C-22.56827697 332.10271268 -26.39466626 334.01982378 -30.48266602 336.63305664 C-62.88370526 356.54301248 -99.42746794 366.10285995 -137.29516602 366.00805664 C-138.12032715 366.00751282 -138.94548828 366.00696899 -139.7956543 366.00640869 C-169.22908489 365.91781356 -197.21488284 360.09749591 -223.92016602 347.63305664 C-224.9754248 347.14168213 -224.9754248 347.14168213 -226.05200195 346.64038086 C-249.03371097 335.80799711 -268.90809754 321.56002085 -286.92016602 303.63305664 C-287.481875 303.07537598 -288.04358398 302.51769531 -288.62231445 301.94311523 C-322.80676333 267.58824535 -345.6825273 217.50755186 -346.15844727 168.76196289 C-346.16824112 167.93073914 -346.17803497 167.09951538 -346.18812561 166.24310303 C-346.36176662 147.67226764 -346.15925768 129.81211411 -341.92016602 111.63305664 C-341.70585937 110.69026855 -341.49155273 109.74748047 -341.27075195 108.77612305 C-338.16380429 95.46870893 -333.68356431 83.00951452 -327.92016602 70.63305664 C-327.59790039 69.93486816 -327.27563477 69.23667969 -326.94360352 68.51733398 C-315.82054467 44.67171138 -300.43423317 24.23161752 -281.92016602 5.63305664 C-281.42693848 5.13580078 -280.93371094 4.63854492 -280.42553711 4.1262207 C-251.16421096 -24.95349079 -210.92830515 -42.04736697 -170.92016602 -49.36694336 C-170.21069824 -49.4997168 -169.50123047 -49.63249023 -168.77026367 -49.76928711 C-109.58836468 -60.2905136 -44.23650549 -39.94298173 0 0 Z M65.76733398 -18.17944336 C63.13460859 -13.7915677 61.56999226 -9.33570923 62.45483398 -4.18334961 C64.23325795 1.16202696 66.98486373 5.05894175 72.12280273 7.67211914 C76.78844322 9.51910246 80.41918532 10.06352752 85.22827148 8.49243164 C89.52778437 6.49687714 92.30742275 3.79167349 94.95483398 -0.17944336 C96.93832482 -5.79933407 96.84201517 -10.24328864 94.45483398 -15.61694336 C91.827109 -20.3767726 88.19134255 -22.66310717 83.07983398 -24.36694336 C75.49014298 -24.99941761 71.41768182 -23.52436699 65.76733398 -18.17944336 Z " fill="#235087" transform="translate(345.920166015625,55.366943359375)"/>
<path d="M0 0 C2.76250153 2.57213394 4.63677082 4.79684041 6.18359375 8.23828125 C6.73527222 9.45668701 6.73527222 9.45668701 7.2980957 10.69970703 C7.67409912 11.56192871 8.05010254 12.42415039 8.4375 13.3125 C8.83219482 14.2082373 9.22688965 15.10397461 9.63354492 16.02685547 C27.55195936 57.31919831 29.0651893 104.77958668 13.1784668 147.07592773 C2.33827184 174.27656476 -14.83456649 200.6831456 -38 219 C-38.53012695 219.42603516 -39.06025391 219.85207031 -39.60644531 220.29101562 C-49.79104724 228.42329096 -60.40310846 235.07005451 -72 241 C-73.12019531 241.57492187 -74.24039063 242.14984375 -75.39453125 242.7421875 C-113.99506039 261.48407964 -162.02703825 265.1001753 -202.796875 251.53515625 C-240.54386731 238.10209522 -272.78028687 214.56187912 -295 181 C-295.57596924 180.13665039 -295.57596924 180.13665039 -296.16357422 179.25585938 C-308.20570215 160.95387902 -315.84664521 140.12541141 -320.25 118.75 C-320.41346924 117.95843506 -320.57693848 117.16687012 -320.74536133 116.35131836 C-322.96658219 104.8661257 -323.13810433 93.41581466 -323.0625 81.75 C-323.041875 77.2125 -323.02125 72.675 -323 68 C-308.48 68 -293.96 68 -279 68 C-275.535 74.435 -275.535 74.435 -272 81 C-265.3338785 88.05256333 -259.11769844 92.43618669 -249.3125 93.33984375 C-242.0580923 93.51976458 -236.61457828 92.87047737 -230 90 C-226.40790822 90.35775062 -224.65780911 91.95071122 -222.13354492 94.43066406 C-221.38985153 95.1552179 -220.64615814 95.87977173 -219.87992859 96.62628174 C-219.08810684 97.41476501 -218.2962851 98.20324829 -217.48046875 99.015625 C-216.6625032 99.82360535 -215.84453766 100.63158569 -215.00178528 101.46405029 C-213.27563494 103.17501292 -211.55353741 104.89007257 -209.83520508 106.60888672 C-207.1958507 109.24167009 -204.53346041 111.8495457 -201.86914062 114.45703125 C-200.19644969 116.1209224 -198.5251763 117.78624005 -196.85546875 119.453125 C-196.05352585 120.23351135 -195.25158295 121.01389771 -194.42533875 121.81793213 C-193.69740616 122.5550946 -192.96947357 123.29225708 -192.21948242 124.05175781 C-191.5720256 124.69493958 -190.92456879 125.33812134 -190.25749207 126.00079346 C-189 128 -189 128 -189.2323761 130.58660889 C-190 133 -190 133 -191.0625 135.5625 C-193.63745551 145.00400352 -192.17627648 154.48456107 -187.93359375 163.1875 C-182.95946409 171.85529029 -175.3501058 176.88329807 -166 180 C-157.22868972 180.64154667 -149.68415208 180.67872262 -142 176 C-140.96875 175.4225 -139.9375 174.845 -138.875 174.25 C-132.02072422 168.88578417 -126.90020198 162.63008399 -125 154 C-124.05944212 143.89927735 -124.05944212 143.89927735 -126.58984375 134.26171875 C-128 131 -128 131 -127.91078186 129.14007568 C-126.56405843 125.97566256 -124.25648958 123.86482772 -121.83764648 121.49707031 C-121.30105408 120.96003983 -120.76446167 120.42300934 -120.21160889 119.8697052 C-118.43845615 118.09864037 -116.65491874 116.33843482 -114.87109375 114.578125 C-113.63875659 113.35138377 -112.40708067 112.12397796 -111.17604065 110.89593506 C-107.93574918 107.66709252 -104.6865494 104.44736066 -101.4354248 101.22943115 C-98.11884989 97.94355589 -94.81076166 94.64916121 -91.50195312 91.35546875 C-85.0095892 84.89526985 -78.50778426 78.4446621 -72 72 C-71.25025909 72.28258667 -70.50051819 72.56517334 -69.72805786 72.85632324 C-68.74159271 73.22277954 -67.75512756 73.58923584 -66.73876953 73.96679688 C-65.76215363 74.33188354 -64.78553772 74.69697021 -63.77932739 75.07312012 C-56.7771353 77.40828617 -48.80032374 77.13498583 -42 74.25 C-40.64907708 73.53216642 -39.31323 72.78466855 -38 72 C-36.96875 71.4225 -35.9375 70.845 -34.875 70.25 C-28.02072422 64.88578417 -22.90020198 58.63008399 -21 50 C-20.05944212 39.89927735 -20.05944212 39.89927735 -22.58984375 30.26171875 C-24 27 -24 27 -23.90869141 25.13500977 C-22.5724099 21.99535856 -20.28201813 19.91407904 -17.87109375 17.578125 C-17.36199966 17.07327576 -16.85290558 16.56842651 -16.3283844 16.04827881 C-14.7050088 14.44166021 -13.071503 12.84580178 -11.4375 11.25 C-10.3332995 10.16085016 -9.22977555 9.07101395 -8.12695312 7.98046875 C-5.4257471 5.3122924 -2.71540937 2.65371709 0 0 Z " fill="#B6E4FE" transform="translate(358,127)"/>
<path d="M0 0 C0.95036133 0.24508301 0.95036133 0.24508301 1.91992188 0.49511719 C23.84578886 6.19247263 43.71977417 15.73968378 62 29.0625 C62.77730469 29.62791504 63.55460937 30.19333008 64.35546875 30.77587891 C69.70228341 34.77333608 74.3846091 39.18513717 79 44 C79.825 44.825 80.65 45.65 81.5 46.5 C82.325 47.325 83.15 48.15 84 49 C84.60585938 49.57105469 85.21171875 50.14210937 85.8359375 50.73046875 C91.00495226 55.69153464 95.07491269 61.01424185 99 67 C93.75541414 73.36590304 87.97902678 79.13570612 82.125 84.9375 C81.14039081 85.91708237 80.156014 86.89689837 79.171875 87.87695312 C76.78351797 90.25360252 74.39284788 92.62787356 72 95 C71.2980249 94.78996338 70.5960498 94.57992676 69.87280273 94.36352539 C59.13997243 91.27292934 48.75364254 89.69838263 38.3125 94.6875 C29.33625158 99.89638909 22.73556452 107.88975692 20 118 C19.61179333 121.28325481 19.61179333 121.28325481 19.625 124.6875 C19.59664062 125.80511719 19.56828125 126.92273438 19.5390625 128.07421875 C19.96453554 131.69795103 20.75786243 134.35737839 22.02880859 137.74536133 C22.39589935 138.73087479 22.76299011 139.71638824 23.14120483 140.73176575 C23.42460724 141.48028305 23.70800964 142.22880035 24 143 C16.80255282 150.33633304 9.5890803 157.65648346 2.35458088 164.95629215 C-1.00402863 168.3462435 -4.35681893 171.7415608 -7.69702148 175.1496582 C-10.91940484 178.43712915 -14.15613361 181.70981814 -17.4034214 184.97268486 C-18.64107548 186.22144411 -19.87342718 187.47548126 -21.10037804 188.73475838 C-22.81718483 190.49498495 -24.55172438 192.23566417 -26.29174805 193.97290039 C-26.79741302 194.50013702 -27.303078 195.02737366 -27.82406616 195.57058716 C-29.27275085 196.99427795 -29.27275085 196.99427795 -32 199 C-34.68074036 198.87937927 -34.68074036 198.87937927 -37 198 C-41.73478241 196.24662011 -45.91857116 195.66375861 -50.9375 195.6875 C-51.61490234 195.67138672 -52.29230469 195.65527344 -52.99023438 195.63867188 C-56.63830639 195.6351742 -59.48366935 196.0519684 -62.75390625 197.58203125 C-66 199 -66 199 -67.96122742 198.80403137 C-70.50937791 197.79911647 -71.91709154 196.47763662 -73.86645508 194.5534668 C-74.61014847 193.82568527 -75.35384186 193.09790375 -76.12007141 192.34806824 C-76.91189316 191.55644791 -77.7037149 190.76482758 -78.51953125 189.94921875 C-79.3374968 189.13886673 -80.15546234 188.32851471 -80.99821472 187.49360657 C-82.72427699 185.7783494 -84.4463768 184.05909698 -86.16479492 182.33618164 C-88.80577787 179.69422461 -91.46735752 177.07430717 -94.13085938 174.45507812 C-95.80338236 172.7877604 -97.47465023 171.11918249 -99.14453125 169.44921875 C-100.3474456 168.27089729 -100.3474456 168.27089729 -101.57466125 167.06877136 C-102.30259384 166.33153336 -103.03052643 165.59429535 -103.78051758 164.8347168 C-104.4279744 164.18931442 -105.07543121 163.54391205 -105.74250793 162.87895203 C-107 161 -107 161 -106.76615906 158.96394348 C-106.51332657 158.31584213 -106.26049408 157.66774078 -106 157 C-103.24064947 148.34850247 -102.02918547 137.54268518 -105.6875 128.9375 C-106.41850209 127.60240591 -107.18800428 126.28744058 -108 125 C-108.5259375 124.06800781 -108.5259375 124.06800781 -109.0625 123.1171875 C-112.2928919 117.9351005 -116.736136 114.94919375 -122 112 C-122.60457031 111.65710938 -123.20914063 111.31421875 -123.83203125 110.9609375 C-130.94924695 107.64267136 -140.20712029 107.7669481 -147.6875 109.69140625 C-149.94891915 110.62973816 -151.93133518 111.69283187 -154 113 C-154.69609375 113.42410156 -155.3921875 113.84820312 -156.109375 114.28515625 C-163.50878614 119.2783679 -167.07796316 126.15592633 -171 134 C-184.53 134 -198.06 134 -212 134 C-207.36141012 114.285993 -207.36141012 114.285993 -204.25 106.9375 C-203.73566406 105.69226563 -203.73566406 105.69226563 -203.2109375 104.421875 C-197.94224413 91.86546343 -192.00589812 80.06 -184 69 C-183.26265625 67.97648437 -182.5253125 66.95296875 -181.765625 65.8984375 C-172.40360031 53.19352669 -161.67458901 41.44896746 -149 32 C-148.48002441 31.60506348 -147.96004883 31.21012695 -147.42431641 30.80322266 C-106.03592386 -0.52201396 -50.70234444 -13.68725261 0 0 Z " fill="#B6E4FE" transform="translate(250,44)"/>
<path d="M0 0 C2.76250153 2.57213394 4.63677082 4.79684041 6.18359375 8.23828125 C6.73527222 9.45668701 6.73527222 9.45668701 7.2980957 10.69970703 C7.67409912 11.56192871 8.05010254 12.42415039 8.4375 13.3125 C8.83219482 14.2082373 9.22688965 15.10397461 9.63354492 16.02685547 C27.55195936 57.31919831 29.0651893 104.77958668 13.1784668 147.07592773 C2.33827184 174.27656476 -14.83456649 200.6831456 -38 219 C-38.53012695 219.42603516 -39.06025391 219.85207031 -39.60644531 220.29101562 C-49.79104724 228.42329096 -60.40310846 235.07005451 -72 241 C-73.12019531 241.57492187 -74.24039063 242.14984375 -75.39453125 242.7421875 C-113.99506039 261.48407964 -162.02703825 265.1001753 -202.796875 251.53515625 C-222.62784852 244.47788728 -240.71235245 235.35921777 -257 222 C-256.34 221.67 -255.68 221.34 -255 221 C-253.36035017 221.69844824 -251.72319589 222.40345579 -250.10058594 223.140625 C-243.61587915 225.79359663 -236.42467355 226.91070751 -229.60400391 228.41552734 C-227.40725089 228.90859191 -225.22631193 229.44002584 -223.04296875 229.98828125 C-202.72009513 234.47846589 -178.16176128 234.01206585 -158 229 C-157.16710449 228.80664062 -156.33420898 228.61328125 -155.47607422 228.4140625 C-122.83677421 220.76062794 -95.066112 205.15864171 -71 182 C-70.32066406 181.38382813 -69.64132812 180.76765625 -68.94140625 180.1328125 C-51.50982137 163.82467696 -39.97676434 141.79830439 -31 120 C-30.59136719 119.05382812 -30.18273437 118.10765625 -29.76171875 117.1328125 C-26.46643343 108.96457629 -25.07842707 100.24831473 -23.50080872 91.618927 C-23.18627623 89.97411215 -22.84993836 88.33316354 -22.48228455 86.69940186 C-21.11655057 80.54926401 -20.69292574 74.71423427 -20.69921875 68.42578125 C-20.69279106 66.973675 -20.69279106 66.973675 -20.68623352 65.49223328 C-20.68053251 63.46284767 -20.67995842 61.43344165 -20.68432617 59.40405273 C-20.68750253 56.31003094 -20.66391724 53.21695204 -20.63867188 50.12304688 C-20.63639998 48.14062619 -20.63569487 46.15820297 -20.63671875 44.17578125 C-20.62290413 42.80055046 -20.62290413 42.80055046 -20.60881042 41.39753723 C-20.63868646 37.23360983 -20.81074633 33.91981638 -22.58520508 30.11401367 C-24 27 -24 27 -24.00805664 24.90136719 C-22.46342293 21.9879239 -20.21457131 19.84872955 -17.87109375 17.578125 C-17.10745262 16.82085114 -17.10745262 16.82085114 -16.3283844 16.04827881 C-14.7050088 14.44166021 -13.071503 12.84580178 -11.4375 11.25 C-10.3332995 10.16085016 -9.22977555 9.07101395 -8.12695312 7.98046875 C-5.4257471 5.3122924 -2.71540937 2.65371709 0 0 Z " fill="#98C7DF" transform="translate(358,127)"/>
<path d="M0 0 C8.25256556 4.65596409 14.07944686 11.40175621 17.56640625 20.15625 C20.18822113 29.59478358 19.38750977 39.91497278 15.13671875 48.703125 C9.45937307 57.82932553 1.52111205 63.03853557 -8.53515625 66.390625 C-10.69737197 66.56417126 -12.86646597 66.65754412 -15.03515625 66.703125 C-16.17984375 66.74050781 -17.32453125 66.77789062 -18.50390625 66.81640625 C-22.04347726 66.66682863 -24.98202064 65.60680453 -28.28710938 64.36401367 C-29.76395203 63.81290169 -29.76395203 63.81290169 -31.27062988 63.25065613 C-32.01792358 62.96684586 -32.76521729 62.68303558 -33.53515625 62.390625 C-40.74110637 69.45768522 -47.93086939 76.54077236 -55.10029697 83.64489269 C-58.42971593 86.94297065 -61.76449626 90.23522565 -65.11206055 93.51489258 C-68.34117881 96.67892005 -71.55550824 99.85729182 -74.76002312 103.04622841 C-75.98645403 104.26155472 -77.21816238 105.47157867 -78.45511055 106.67619896 C-80.18421112 108.3618753 -81.89374335 110.06527247 -83.59985352 111.77416992 C-84.11773941 112.27048416 -84.63562531 112.7667984 -85.16920471 113.27815247 C-86.76026775 114.82916933 -86.76026775 114.82916933 -88.53515625 117.390625 C-88.39866911 120.30712676 -87.67584581 122.07486686 -86.49609375 124.72265625 C-83.96262692 131.75663123 -84.52446105 141.73405065 -86.97265625 148.765625 C-91.29057536 157.78156173 -98.45302977 164.41305136 -107.53515625 168.390625 C-108.29828125 168.75414062 -109.06140625 169.11765625 -109.84765625 169.4921875 C-116.71669512 171.78852317 -125.93807338 171.52228437 -132.59765625 168.640625 C-133.92872081 167.92408931 -135.24399251 167.17678812 -136.53515625 166.390625 C-137.56640625 165.813125 -138.59765625 165.235625 -139.66015625 164.640625 C-147.71241152 158.33886001 -152.91116155 150.56357293 -154.53515625 140.390625 C-154.9456086 134.66797198 -155.18137951 129.26619347 -152.97265625 123.890625 C-151.35116055 120.03876565 -151.35116055 120.03876565 -152.53515625 116.390625 C-153.99000914 114.46332408 -153.99000914 114.46332408 -155.87402344 112.6159668 C-156.93082306 111.53045784 -156.93082306 111.53045784 -158.00897217 110.42301941 C-158.77558167 109.65307144 -159.54219116 108.88312347 -160.33203125 108.08984375 C-161.11781555 107.29407425 -161.90359985 106.49830475 -162.7131958 105.67842102 C-164.37708027 103.99935015 -166.04506105 102.32433014 -167.71679688 100.65307617 C-170.27716206 98.08613971 -172.81259245 95.49619295 -175.34765625 92.90429688 C-176.9659744 91.27717895 -178.58571917 89.65147844 -180.20703125 88.02734375 C-180.96554382 87.24727463 -181.7240564 86.46720551 -182.5055542 85.66349792 C-183.22269592 84.95558609 -183.93983765 84.24767426 -184.67871094 83.51831055 C-185.30412781 82.88861862 -185.92954468 82.2589267 -186.57391357 81.6101532 C-188.51615383 80.12830191 -188.51615383 80.12830191 -191.09747314 80.63020325 C-192.87765897 81.18552236 -194.64187431 81.79279304 -196.39453125 82.4296875 C-204.56403964 84.9293132 -214.45855146 84.54025338 -222.19921875 80.82421875 C-231.85205885 74.90015133 -237.94468459 67.1734746 -241.53515625 56.390625 C-243.31377837 45.77663977 -240.81343019 36.67252498 -234.80859375 27.85546875 C-229.43999408 21.23861442 -222.58845485 17.07505787 -214.53515625 14.390625 C-202.92787794 13.38379788 -193.12718544 14.74063275 -183.66015625 22.140625 C-177.33663961 28.13946231 -172.92707913 35.43305505 -172.234375 44.1953125 C-172.21605524 45.55196527 -172.21254331 46.90888623 -172.22265625 48.265625 C-172.22322021 48.97235352 -172.22378418 49.67908203 -172.22436523 50.40722656 C-172.31895881 55.7662928 -173.39579829 59.55381571 -175.53515625 64.390625 C-175.17201185 67.93634343 -173.64649332 69.67004921 -171.19628906 72.1652832 C-170.13948944 73.25079216 -170.13948944 73.25079216 -169.06134033 74.35823059 C-167.91142609 75.51315254 -167.91142609 75.51315254 -166.73828125 76.69140625 C-165.95249695 77.48717575 -165.16671265 78.28294525 -164.3571167 79.10282898 C-162.69323223 80.78189985 -161.02525145 82.45691986 -159.35351562 84.12817383 C-156.79315044 86.69511029 -154.25772005 89.28505705 -151.72265625 91.87695312 C-150.1043381 93.50407105 -148.48459333 95.12977156 -146.86328125 96.75390625 C-146.10476868 97.53397537 -145.3462561 98.31404449 -144.5647583 99.11775208 C-143.84761658 99.82566391 -143.13047485 100.53357574 -142.39160156 101.26293945 C-141.76618469 101.89263138 -141.14076782 102.5223233 -140.49639893 103.1710968 C-138.549494 104.6553836 -138.549494 104.6553836 -135.93939209 104.15129089 C-133.5137955 103.43461726 -133.5137955 103.43461726 -131.2109375 102.34765625 C-127.70956214 101.09533951 -124.3946822 101.05108694 -120.72265625 101.078125 C-120.01141602 101.07868896 -119.30017578 101.07925293 -118.56738281 101.07983398 C-113.18661823 101.1742009 -109.39062941 102.24301187 -104.53515625 104.390625 C-100.30000795 104.17886758 -97.92154361 101.1790971 -95.12402344 98.32006836 C-94.59674652 97.79322952 -94.0694696 97.26639069 -93.5262146 96.72358704 C-91.78761349 94.98289827 -90.05987569 93.23182986 -88.33203125 91.48046875 C-87.12771034 90.27055182 -85.92272475 89.06129616 -84.71710205 87.85267639 C-81.54744202 84.67156815 -78.38689463 81.48155347 -75.22814941 78.28961182 C-72.00259827 75.03335947 -68.76852601 71.78559488 -65.53515625 68.53710938 C-59.19344546 62.16323484 -52.86132744 55.77992049 -46.53515625 49.390625 C-46.95903625 48.26540184 -46.95903625 48.26540184 -47.39147949 47.1174469 C-47.75793579 46.13066452 -48.12439209 45.14388214 -48.50195312 44.12719727 C-48.86703979 43.15017349 -49.23212646 42.17314972 -49.60827637 41.16651917 C-52.29566299 33.1181183 -51.37015845 24.2442011 -47.7890625 16.6328125 C-38.13164209 -0.63621963 -18.52198903 -7.91014268 0 0 Z " fill="#255188" transform="translate(319.53515625,137.609375)"/>
<path d="M0 0 C2.94426786 1.32953203 5.03597638 2.78122039 7.32589722 5.05174255 C7.96220062 5.67807083 8.59850403 6.30439911 9.25408936 6.94970703 C9.94093811 7.63589111 10.62778687 8.3220752 11.33544922 9.02905273 C12.06766693 9.75294693 12.79988464 10.47684113 13.55429077 11.22267151 C15.97658367 13.62084543 18.39112829 16.02663217 20.8046875 18.43359375 C22.48846014 20.10839798 24.17230931 21.78312526 25.85623169 23.45777893 C29.38885247 26.9738995 32.91704498 30.49440082 36.44287109 34.01733398 C40.94555513 38.51464876 45.46413714 42.99561365 49.98695183 47.47267056 C53.47346205 50.9293201 56.94854866 54.39728593 60.42065811 57.86839485 C62.08062059 59.5241691 63.74467806 61.17584909 65.41299057 62.82320976 C87.8855638 85.03601382 87.8855638 85.03601382 88.02734375 101.09765625 C87.50325728 112.58724414 84.06392212 121.6810922 76 130 C67.46237086 137.26809321 58.2392212 139.61062032 47.1640625 139.2734375 C29.16646594 137.71808965 17.46901857 122.88120647 5.51953125 110.8125 C3.85439388 109.14175777 2.18858578 107.47168378 0.5221405 105.80224609 C-3.83275817 101.43596879 -8.17856632 97.06075414 -12.52246094 92.68353271 C-16.9684399 88.20670153 -21.42307082 83.73849721 -25.87695312 79.26953125 C-34.59306248 70.52138111 -43.29958029 61.76375241 -52 53 C-48.50191226 48.84298316 -44.94615486 44.82199421 -41.09619141 40.98266602 C-40.17569 40.06224014 -39.2551886 39.14181427 -38.30679321 38.1934967 C-37.32177076 37.21357848 -36.33669259 36.23371626 -35.3515625 35.25390625 C-34.32858694 34.23279952 -33.30583472 33.211469 -32.28329468 32.18992615 C-29.61246639 29.52288647 -26.93864718 26.85886564 -24.26416016 24.19549561 C-21.52713264 21.4687615 -18.79299099 18.73913695 -16.05859375 16.00976562 C-10.70852452 10.67036911 -5.35528727 5.33416348 0 0 Z " fill="#234F86" transform="translate(416,369)"/>
<path d="M0 0 C8.25256556 4.65596409 14.07944686 11.40175621 17.56640625 20.15625 C20.18822113 29.59478358 19.38750977 39.91497278 15.13671875 48.703125 C9.45937307 57.82932553 1.52111205 63.03853557 -8.53515625 66.390625 C-10.69737197 66.56417126 -12.86646597 66.65754412 -15.03515625 66.703125 C-16.17984375 66.74050781 -17.32453125 66.77789062 -18.50390625 66.81640625 C-22.53515625 66.390625 -22.53515625 66.390625 -33.53515625 62.390625 C-51.68515625 80.540625 -69.83515625 98.690625 -88.53515625 117.390625 C-92.53515625 115.390625 -92.53515625 115.390625 -94.41015625 113.015625 C-96.79744815 110.06661736 -99.31802077 108.36477631 -102.53515625 106.390625 C-97.10156805 99.77989513 -91.07069582 93.79848304 -85.01171875 87.76953125 C-83.8990624 86.65874331 -82.78662909 85.5477319 -81.67440796 84.43650818 C-78.76684355 81.53273566 -75.8562872 78.63198064 -72.94506836 75.73187256 C-69.96675196 72.76384237 -66.99131519 69.79292838 -64.015625 66.82226562 C-58.19159502 61.00891417 -52.36439675 55.19875166 -46.53515625 49.390625 C-46.81774292 48.64047623 -47.10032959 47.89032745 -47.39147949 47.1174469 C-47.75793579 46.13066452 -48.12439209 45.14388214 -48.50195312 44.12719727 C-48.86703979 43.15017349 -49.23212646 42.17314972 -49.60827637 41.16651917 C-52.29566299 33.1181183 -51.37015845 24.2442011 -47.7890625 16.6328125 C-38.13164209 -0.63621963 -18.52198903 -7.91014268 0 0 Z " fill="#255288" transform="translate(319.53515625,137.609375)"/>
<path d="M0 0 C1.11955078 0.62068359 1.11955078 0.62068359 2.26171875 1.25390625 C9.75205809 5.79763276 14.61529752 11.91432184 18 20 C18 20.99 18 21.98 18 23 C35.49 23 52.98 23 71 23 C71 28.94 71 34.88 71 41 C53.51 41 36.02 41 18 41 C17.01 43.97 16.02 46.94 15 50 C9.32183764 58.57106499 1.23769786 63.82869064 -8.5 66.75 C-16.4371797 67.54371797 -23.76419159 66.84111488 -31.31616211 64.18554688 C-34.15031042 63.70087206 -34.15031042 63.70087206 -36.49536133 65.81420898 C-37.3489624 66.69923096 -38.20256348 67.58425293 -39.08203125 68.49609375 C-39.77059456 69.19739159 -39.77059456 69.19739159 -40.47306824 69.91285706 C-41.93423114 71.40757481 -43.37315999 72.92178586 -44.8125 74.4375 C-45.80003597 75.45513293 -46.78895369 76.47142692 -47.77929688 77.48632812 C-50.20241626 79.97555591 -52.60601908 82.48269949 -55 85 C-58.92760834 83.217015 -60.74711393 81.12368009 -63.3125 77.625 C-64.38951172 76.19027344 -64.38951172 76.19027344 -65.48828125 74.7265625 C-67 72 -67 72 -66.84887695 70.08911133 C-65.72150543 67.31461661 -64.12130726 65.88286534 -61.9296875 63.84765625 C-61.11628906 63.07099609 -60.30289062 62.29433594 -59.46484375 61.49414062 C-57.73606804 59.87096886 -56.00165802 58.25377749 -54.26171875 56.64257812 C-53.45089844 55.86462891 -52.64007813 55.08667969 -51.8046875 54.28515625 C-51.05171387 53.58269775 -50.29874023 52.88023926 -49.52294922 52.15649414 C-47.72146955 50.09224121 -47.72146955 50.09224121 -48.19580078 47.46264648 C-48.46118652 46.64997314 -48.72657227 45.8372998 -49 45 C-51.89328914 34.95858475 -51.91541749 25.84025679 -48 16 C-43.38027138 7.79674356 -35.87090056 0.85050144 -26.9765625 -2.34375 C-18.35329028 -4.24494388 -7.82223789 -4.51610684 0 0 Z M-29.3125 21.1875 C-31.94522539 25.57537566 -33.50984172 30.03123413 -32.625 35.18359375 C-30.84657604 40.52897032 -28.09497025 44.42588511 -22.95703125 47.0390625 C-18.29139077 48.88604582 -14.66064866 49.43047088 -9.8515625 47.859375 C-5.55204961 45.86382049 -2.77241123 43.15861685 -0.125 39.1875 C1.85849084 33.56760929 1.76218119 29.12365472 -0.625 23.75 C-3.25272498 18.99017076 -6.88849144 16.70383619 -12 15 C-19.589691 14.36752575 -23.66215216 15.84257637 -29.3125 21.1875 Z " fill="#234F86" transform="translate(441,16)"/>
<path d="M0 0 C5.06711299 4.24210136 9.81223371 8.67717089 14.46484375 13.3671875 C15.14301651 14.04677521 15.82118927 14.72636292 16.51991272 15.42654419 C18.66149141 17.57367002 20.79954529 19.72426627 22.9375 21.875 C24.39885589 23.34137773 25.86044226 24.8075258 27.32226562 26.2734375 C30.88417935 29.84631 34.44293865 33.42229684 38 37 C32.81239418 43.28513004 27.12572734 49.00311158 21.3515625 54.74609375 C20.32858694 55.76720048 19.30583472 56.788531 18.28329468 57.81007385 C15.61246639 60.47711353 12.93864718 63.14113436 10.26416016 65.80450439 C7.52713264 68.5312385 4.79299099 71.26086305 2.05859375 73.99023438 C-3.29147548 79.32963089 -8.64471273 84.66583652 -14 90 C-17.09179136 88.6238464 -19.19638753 87.04841555 -21.57519531 84.65185547 C-22.25559875 83.97130096 -22.9360022 83.29074646 -23.63702393 82.58956909 C-24.36008728 81.85618317 -25.08315063 81.12279724 -25.828125 80.3671875 C-26.57713074 79.61535187 -27.32613647 78.86351624 -28.09783936 78.08889771 C-30.4866302 75.68892099 -32.86836897 73.28207991 -35.25 70.875 C-36.86933169 69.24563648 -38.48911802 67.61672466 -40.109375 65.98828125 C-44.07820505 61.99741194 -48.04126899 58.00088585 -52 54 C-50.58232655 49.74697965 -47.39860823 48.18204659 -43.875 45.6875 C-37.91742579 41.34664525 -32.31679694 36.79146339 -26.9375 31.75 C-26.04683838 30.91988403 -26.04683838 30.91988403 -25.13818359 30.07299805 C-18.03293898 23.31452135 -11.96083093 15.81478059 -6.0625 8 C-5.17981445 6.83791016 -5.17981445 6.83791016 -4.27929688 5.65234375 C-2.85024972 3.77018408 -1.42438742 1.8856856 0 0 Z " fill="#B20D24" transform="translate(379,331)"/>
<path d="M0 0 C4.81652658 2.31350123 8.75211923 5.0131362 12.4375 8.875 C13.159375 9.6175 13.88125 10.36 14.625 11.125 C21.04308102 20.86277811 22.1527213 31.44656155 19.84765625 42.7734375 C16.63404549 52.16251226 9.33018993 59.52905248 0.578125 63.9375 C-0.12828125 64.246875 -0.8346875 64.55625 -1.5625 64.875 C-2.325625 65.23851562 -3.08875 65.60203125 -3.875 65.9765625 C-10.74403887 68.27289817 -19.96541713 68.00665937 -26.625 65.125 C-27.95606456 64.40846431 -29.27133626 63.66116312 -30.5625 62.875 C-32.109375 62.00875 -32.109375 62.00875 -33.6875 61.125 C-41.76192327 54.80588614 -46.89652125 47.05598123 -48.5625 36.875 C-49.59032977 26.75821836 -47.47266736 17.74217514 -41.3125 9.5 C-29.80677128 -1.48274105 -15.13383613 -5.90867657 0 0 Z " fill="#255188" transform="translate(213.5625,241.125)"/>
<path d="M0 0 C0.77883545 0.78334717 1.5576709 1.56669434 2.36010742 2.3737793 C4.61487354 4.61686809 6.90779752 6.73385888 9.3125 8.8125 C10.00988281 9.41707031 10.70726562 10.02164063 11.42578125 10.64453125 C11.94527344 11.09183594 12.46476562 11.53914062 13 12 C7.62806094 18.52878733 1.68214926 24.44579862 -4.3046875 30.40234375 C-5.39492365 31.49071139 -6.48493669 32.57930257 -7.57473755 33.66810608 C-10.42311794 36.51269535 -13.27449004 39.35426681 -16.12652588 42.19519043 C-19.04452 45.10289665 -21.95963304 48.01348824 -24.875 50.92382812 C-30.58053984 56.61869081 -36.28924794 62.31036412 -42 68 C-44.7345298 66.76322096 -45.96697939 66.04182611 -47.875 63.625 C-50.2622919 60.67599236 -52.78286452 58.97415131 -56 57 C-50.5664118 50.38927013 -44.53553957 44.40785804 -38.4765625 38.37890625 C-37.36390615 37.26811831 -36.25147284 36.1571069 -35.13925171 35.04588318 C-32.2316873 32.14211066 -29.32113095 29.24135564 -26.40991211 26.34124756 C-23.43159571 23.37321737 -20.45615894 20.40230338 -17.48046875 17.43164062 C-11.65643877 11.61828917 -5.8292405 5.80812666 0 0 Z " fill="#ED2A4C" transform="translate(273,187)"/>
<path d="M0 0 C4.50331313 0.60670822 8.12443121 2.41179422 12.0625 4.5625 C12.7229834 4.92037598 13.3834668 5.27825195 14.06396484 5.64697266 C27.77031966 13.18893651 41.3049105 22.50054444 52 34 C52.804375 34.804375 53.60875 35.60875 54.4375 36.4375 C55.283125 37.283125 56.12875 38.12875 57 39 C57.91072266 39.85851562 57.91072266 39.85851562 58.83984375 40.734375 C64.00761377 45.69384719 68.07604299 51.01596555 72 57 C66.17371096 64.15801225 59.5617015 70.52591766 53 77 C50.23343665 74.23343665 49.26933714 70.89586405 47.875 67.3125 C37.85648538 42.36017839 22.1726734 19.8430845 1.58203125 2.42578125 C1.05996094 1.95527344 0.53789062 1.48476563 0 1 C0 0.67 0 0.34 0 0 Z " fill="#98C7DF" transform="translate(277,54)"/>
<path d="M0 0 C-4.02748053 4.83298806 -8.24379413 9.38110004 -12.7109375 13.80859375 C-13.32393707 14.42017838 -13.93693665 15.031763 -14.56851196 15.66188049 C-16.50164564 17.58947559 -18.43824987 19.51353928 -20.375 21.4375 C-21.69684699 22.75432404 -23.01846372 24.07137926 -24.33984375 25.38867188 C-27.55724299 28.59512373 -30.77775681 31.79841629 -34 35 C-37.90851199 33.41568547 -40.52367356 30.73364905 -43.421875 27.7734375 C-43.92672424 27.26575836 -44.43157349 26.75807922 -44.95172119 26.23501587 C-46.55592096 24.61966158 -48.15300856 22.99747791 -49.75 21.375 C-50.83938107 20.27558302 -51.9292199 19.17661941 -53.01953125 18.078125 C-55.68501885 15.3906398 -58.34415143 12.69700979 -61 10 C-56.88071804 7.25381202 -52.73808395 6.60019474 -47.9375 5.5625 C-46.93122559 5.34440674 -45.92495117 5.12631348 -44.88818359 4.90161133 C-30.19657735 1.85617553 -15.0274662 -0.29803952 0 0 Z " fill="#EE2547" transform="translate(399,386)"/>
<path d="M0 0 C5.22948744 4.37029366 10.10289955 8.96911804 14.90234375 13.8046875 C15.6249086 14.5286673 16.34747345 15.25264709 17.0919342 15.99856567 C19.37616922 18.28835265 21.65688312 20.58160993 23.9375 22.875 C25.49521039 24.43773161 27.05315087 26.0002339 28.61132812 27.5625 C32.41021602 31.3723531 36.20622713 35.18505379 40 39 C39.22785156 39.76957031 38.45570313 40.53914063 37.66015625 41.33203125 C35.89958363 43.09777442 34.15819214 44.88287166 32.4375 46.6875 C30 49 30 49 26 51 C13.79 38.79 1.58 26.58 -11 14 C-9 10 -9 10 -6.0625 7.5625 C-3.19372892 5.16209971 -1.68958175 3.28529785 0 0 Z " fill="#EC2A4C" transform="translate(142,204)"/>
<path d="M0 0 C5.17715429 2.73617146 9.15478717 6.68701776 11.03125 12.31640625 C11.56974036 18.67059252 10.67097798 23.01583152 7.03125 28.31640625 C4.53125 30.69140625 4.53125 30.69140625 2.03125 32.31640625 C1.433125 32.72890625 0.835 33.14140625 0.21875 33.56640625 C-4.81580869 35.29254066 -9.37462704 34.85998971 -14.15625 32.75390625 C-19.24924988 29.94674096 -22.15297579 25.76372889 -23.96875 20.31640625 C-24.6615444 13.50392794 -23.28905412 9.62555382 -18.96875 4.31640625 C-13.57501781 -0.69205936 -7.12772848 -2.47490572 0 0 Z " fill="#B3E1FC" transform="translate(205.96875,256.68359375)"/>
<path d="M0 0 C4.75178615 2.833308 8.32785808 6.03462241 10.83984375 11.05859375 C11.35823141 16.25946667 11.50579774 20.67545853 9.21484375 25.43359375 C4.70719722 30.41572938 0.69595696 34.08323222 -6.28515625 34.49609375 C-12.08200048 34.42978998 -15.92797982 31.84389441 -20.16015625 28.05859375 C-23.76258185 23.47368844 -23.66844118 18.54529898 -23.5078125 12.90234375 C-23.0290686 8.98632626 -21.86886278 6.90986378 -19.16015625 4.05859375 C-13.37801846 -0.30751029 -7.05198659 -3.07328891 0 0 Z " fill="#B4E2FC" transform="translate(119.16015625,169.94140625)"/>
<path d="M0 0 C17.49 0 34.98 0 53 0 C53 5.94 53 11.88 53 18 C35.51 18 18.02 18 0 18 C0 12.06 0 6.12 0 0 Z " fill="#EE2547" transform="translate(459,39)"/>
<path d="M0 0 C8.30310191 7.33762495 8.30310191 7.33762495 8.92578125 12.2578125 C9.12172317 18.17732101 8.11465392 22.48854184 4.6875 27.375 C-0.52538951 32.33360222 -5.23175311 32.89327029 -12.22265625 32.859375 C-17.25397754 32.07064701 -20.21500829 29.28260492 -23.3125 25.375 C-26.40700679 20.50929524 -25.91569066 14.93031147 -25.3125 9.375 C-23.15312362 4.89629344 -20.38297061 2.19301812 -16.3125 -0.625 C-10.76281434 -2.47489522 -5.27990161 -2.59014041 0 0 Z " fill="#B5E3FD" transform="translate(312.3125,153.625)"/>
<path d="M0 0 C13.53 0 27.06 0 41 0 C41 5.61 41 11.22 41 17 C26.81 17 12.62 17 -2 17 C-2 9 -2 9 0 0 Z " fill="#EE2648" transform="translate(38,178)"/>
<path d="M0 0 C4.06564732 1.35521577 5.1350785 4.04035171 7.1875 7.5625 C7.55552734 8.17802734 7.92355469 8.79355469 8.30273438 9.42773438 C9.209679 10.94716109 10.10588168 12.47299033 11 14 C6.18132753 19.80891746 0.98743592 25.13065552 -4.375 30.4375 C-5.20644531 31.26443359 -6.03789062 32.09136719 -6.89453125 32.94335938 C-8.9274104 34.96455531 -10.96259963 36.98336335 -13 39 C-17.15863984 37.15856838 -19.13136866 34.51407339 -22 31 C-24.16220617 29.1873495 -24.16220617 29.1873495 -26 28 C-24.39626852 23.99482604 -21.57886014 21.3228902 -18.5546875 18.359375 C-17.75987473 17.56880707 -17.75987473 17.56880707 -16.94900513 16.76226807 C-15.26232175 15.08674325 -13.56880436 13.41832278 -11.875 11.75 C-10.72740612 10.61244149 -9.58026539 9.47442564 -8.43359375 8.3359375 C-5.62761863 5.55196535 -2.81549536 2.7743424 0 0 Z " fill="#B20F26" transform="translate(348,112)"/>
<path d="M0 0 C0.72574219 0.73605469 1.45148438 1.47210938 2.19921875 2.23046875 C4.67499219 4.6786185 7.20027967 7.01218657 9.8125 9.3125 C10.60269531 10.00988281 11.39289063 10.70726563 12.20703125 11.42578125 C12.79871094 11.94527344 13.39039063 12.46476562 14 13 C9.47008204 18.43733055 4.65705784 23.46458931 -0.375 28.4375 C-1.11105469 29.16904297 -1.84710938 29.90058594 -2.60546875 30.65429688 C-4.40136074 32.43852723 -6.19955985 34.22036124 -8 36 C-11.92760834 34.217015 -13.74711393 32.12368009 -16.3125 28.625 C-17.03050781 27.66851562 -17.74851562 26.71203125 -18.48828125 25.7265625 C-20 23 -20 23 -19.86035156 21.11376953 C-18.68964846 18.23750747 -16.96100309 16.62402952 -14.74609375 14.453125 C-13.89208984 13.60878906 -13.03808594 12.76445313 -12.15820312 11.89453125 C-11.26037109 11.02183594 -10.36253906 10.14914063 -9.4375 9.25 C-8.53580078 8.36183594 -7.63410156 7.47367187 -6.70507812 6.55859375 C-4.47662902 4.36551685 -2.24148407 2.17973956 0 0 Z " fill="#ED2648" transform="translate(394,65)"/>
<path d="M0 0 C3.1195572 1.38685223 5.25855799 3.00189491 7.671875 5.40625 C8.66767578 6.39818359 8.66767578 6.39818359 9.68359375 7.41015625 C10.36550781 8.09980469 11.04742187 8.78945313 11.75 9.5 C12.44738281 10.18964844 13.14476562 10.87929688 13.86328125 11.58984375 C14.52199219 12.25113281 15.18070312 12.91242188 15.859375 13.59375 C16.46233398 14.19896484 17.06529297 14.80417969 17.68652344 15.42773438 C19 17 19 17 19 19 C15.22897636 18.85885325 11.4582328 18.7111987 7.6875 18.5625 C6.63498047 18.52318359 5.58246094 18.48386719 4.49804688 18.44335938 C-2.36052848 18.16901636 -9.17098103 17.69319348 -16 17 C-11.01595832 10.96668638 -5.58084697 5.4815829 0 0 Z " fill="#163769" transform="translate(416,369)"/>
<path d="M0 0 C1.65 6.27 3.3 12.54 5 19 C2 19 2 19 0.53515625 17.57421875 C0.04917969 16.95160156 -0.43679688 16.32898438 -0.9375 15.6875 C-3.09367902 13.03125951 -5.11045526 10.88931771 -8 9 C-6.78641212 6.02119338 -3.58154637 0 0 0 Z " fill="#E8294B" transform="translate(330,131)"/>
</svg>
